<svg width="62" height="62" viewBox="0 0 62 62" fill="none" xmlns="http://www.w3.org/2000/svg">
<g filter="url(#filter0_d_1268_87)">
<path d="M31 53.872C45.7055 53.872 57.6267 41.9508 57.6267 27.2453C57.6267 12.5397 45.7055 0.618469 31 0.618469C16.2944 0.618469 4.37317 12.5397 4.37317 27.2453C4.37317 41.9508 16.2944 53.872 31 53.872Z" fill="#1E1E1E"/>
</g>
<path d="M23.2283 20.1962C23.2366 15.8986 26.7151 12.4267 31.0064 12.4321C35.3065 12.4376 38.7784 15.9133 38.7716 20.2045C38.7647 24.5017 35.2843 27.9797 30.9968 27.9754C26.7104 27.9715 23.22 24.4759 23.2283 20.1962ZM30.9983 23.6233C32.8904 23.626 34.4222 22.1025 34.4257 20.2131C34.4291 18.3129 32.9003 16.7744 31.0052 16.7733C29.1166 16.7721 27.584 18.299 27.5787 20.1874C27.5733 22.0898 29.0965 23.6206 30.9983 23.6233Z" fill="white" stroke="#1E1E1E" stroke-width="0.3"/>
<path d="M28.5458 34.0461C28.0475 33.9361 27.5838 33.8093 27.128 33.6504C25.9917 33.2544 24.914 32.7237 23.9382 31.9681C23.2561 31.4399 22.9576 30.7086 23.1231 29.8119C23.2885 28.9162 23.8182 28.3627 24.638 28.1724C25.1445 28.0549 25.6327 28.1574 26.0551 28.4859C27.1159 29.3105 28.3048 29.7769 29.5774 29.9943C31.2941 30.2879 32.9627 30.0793 34.5675 29.3348C35.0397 29.1159 35.4837 28.8445 35.902 28.5166C36.7505 27.8506 37.9486 28.0735 38.5584 28.9987C39.1751 29.9347 38.99 31.2282 38.1287 31.9159C37.0219 32.7998 35.7836 33.3844 34.4707 33.7915C34.1951 33.8768 33.9152 33.9454 33.5784 34.0375C33.6706 34.1211 33.7412 34.175 33.8014 34.2404C35.1525 35.7013 36.5052 37.1601 37.8514 38.6264C38.612 39.4549 38.6097 40.7751 37.8596 41.5932C37.1134 42.4067 35.9294 42.4114 35.1548 41.5925C34.0156 40.3887 32.8829 39.1777 31.7473 37.9697C31.5406 37.7497 31.3287 37.5347 31.1286 37.3076C31.0423 37.2094 30.9959 37.2165 30.9128 37.314C29.9842 38.4018 29.051 39.4852 28.1191 40.5698C27.8356 40.8994 27.5583 41.2354 27.2666 41.5561C26.7346 42.1414 26.0904 42.3428 25.3658 42.1196C24.6272 41.8921 24.1655 41.3422 24.0105 40.5201C23.8761 39.8073 24.0573 39.176 24.5173 38.6492C25.6938 37.3015 26.8742 35.9577 28.053 34.6125C28.2109 34.4321 28.3676 34.2511 28.5458 34.0461Z" fill="white"/>
<defs>
<filter id="filter0_d_1268_87" x="0.373169" y="0.618469" width="61.2536" height="61.2536" filterUnits="userSpaceOnUse" color-interpolation-filters="sRGB">
<feFlood flood-opacity="0" result="BackgroundImageFix"/>
<feColorMatrix in="SourceAlpha" type="matrix" values="0 0 0 0 0 0 0 0 0 0 0 0 0 0 0 0 0 0 127 0" result="hardAlpha"/>
<feOffset dy="4"/>
<feGaussianBlur stdDeviation="2"/>
<feComposite in2="hardAlpha" operator="out"/>
<feColorMatrix type="matrix" values="0 0 0 0 0 0 0 0 0 0 0 0 0 0 0 0 0 0 0.25 0"/>
<feBlend mode="normal" in2="BackgroundImageFix" result="effect1_dropShadow_1268_87"/>
<feBlend mode="normal" in="SourceGraphic" in2="effect1_dropShadow_1268_87" result="shape"/>
</filter>
</defs>
</svg>
