<svg width="62" height="63" viewBox="0 0 62 63" fill="none" xmlns="http://www.w3.org/2000/svg">
<g filter="url(#filter0_d_1268_73)">
<path d="M31 54.0519C45.7055 54.0519 57.6267 42.1307 57.6267 27.4251C57.6267 12.7196 45.7055 0.79834 31 0.79834C16.2944 0.79834 4.37317 12.7196 4.37317 27.4251C4.37317 42.1307 16.2944 54.0519 31 54.0519Z" fill="#1E1E1E"/>
</g>
<ellipse cx="29.7749" cy="27.3805" rx="17.7952" ry="18.0628" fill="white"/>
<path fill-rule="evenodd" clip-rule="evenodd" d="M36.6106 7.50208H24.0792C12.6375 7.50208 9.9133 10.2263 9.9133 21.668V34.1994C9.9133 45.6411 12.6375 48.3653 24.0792 48.3653H36.6106C48.0523 48.3653 50.7765 45.6411 50.7765 34.1994V21.668C50.7765 10.2263 48.0523 7.50208 36.6106 7.50208ZM42.4762 20.4847C43.3773 20.4847 43.5666 20.9486 43.3773 21.5799C42.9985 23.3161 39.3683 28.4299 39.3683 28.4299C39.0526 28.9349 38.9263 29.1875 39.3683 29.7557C39.5239 29.9736 39.856 30.2989 40.2359 30.6711C40.6267 31.0538 41.068 31.4861 41.4201 31.9022C42.7 33.3421 43.6646 34.5568 43.9333 35.394C44.1789 36.234 43.7532 36.6597 42.9019 36.6597H39.9223C39.1242 36.6597 38.7223 36.2126 37.8539 35.2466C37.4859 34.8372 37.034 34.3345 36.4326 33.7331C34.6648 32.0285 33.9072 31.8075 33.4653 31.8075C32.8655 31.8075 32.6861 31.9774 32.6861 32.8288V35.5008C32.6861 36.234 32.4518 36.6597 30.5578 36.6597C27.4011 36.6597 23.9321 34.7432 21.4699 31.2078C17.7766 26.0308 16.7664 22.1165 16.7664 21.3273C16.7664 20.8854 16.9367 20.4847 17.788 20.4847H20.7676C21.5291 20.4847 21.8156 20.818 22.1012 21.643C23.5585 25.8881 26.0155 29.5979 27.0256 29.5979C27.4044 29.5979 27.5782 29.4235 27.5782 28.4615V24.0737C27.5098 22.8247 27.0735 22.2845 26.7503 21.8844C26.5508 21.6374 26.3943 21.4437 26.3943 21.1695C26.3943 20.8363 26.6791 20.4847 27.1525 20.4847H31.8348C32.4662 20.4847 32.686 20.8223 32.686 21.5799V27.4829C32.686 28.1142 32.9602 28.3352 33.1496 28.3352C33.5284 28.3352 33.8441 28.1142 34.5385 27.4197C36.6851 25.0207 38.2003 21.3273 38.2003 21.3273C38.3897 20.8854 38.739 20.4847 39.4966 20.4847H42.4762Z" fill="#1E1E1E"/>
<defs>
<filter id="filter0_d_1268_73" x="0.373169" y="0.79834" width="61.2536" height="61.2536" filterUnits="userSpaceOnUse" color-interpolation-filters="sRGB">
<feFlood flood-opacity="0" result="BackgroundImageFix"/>
<feColorMatrix in="SourceAlpha" type="matrix" values="0 0 0 0 0 0 0 0 0 0 0 0 0 0 0 0 0 0 127 0" result="hardAlpha"/>
<feOffset dy="4"/>
<feGaussianBlur stdDeviation="2"/>
<feComposite in2="hardAlpha" operator="out"/>
<feColorMatrix type="matrix" values="0 0 0 0 0 0 0 0 0 0 0 0 0 0 0 0 0 0 0.25 0"/>
<feBlend mode="normal" in2="BackgroundImageFix" result="effect1_dropShadow_1268_73"/>
<feBlend mode="normal" in="SourceGraphic" in2="effect1_dropShadow_1268_73" result="shape"/>
</filter>
</defs>
</svg>
