<svg width="62" height="62" viewBox="0 0 62 62" fill="none" xmlns="http://www.w3.org/2000/svg">
<g filter="url(#filter0_d_1268_103)">
<path d="M31 53.6922C45.7055 53.6922 57.6267 41.7709 57.6267 27.0654C57.6267 12.3598 45.7055 0.438599 31 0.438599C16.2944 0.438599 4.37317 12.3598 4.37317 27.0654C4.37317 41.7709 16.2944 53.6922 31 53.6922Z" fill="#1E1E1E"/>
</g>
<path d="M42.5348 17.6877C41.8712 20.5524 38.2538 36.1891 37.7046 38.443L30.4232 32.6436L25.483 36.2464L26.8513 31.6371C30.3976 28.5657 34.1584 25.6641 37.4124 22.2793L23.65 29.6854L15.4651 27.4866L18.4354 26.412C26.0024 23.6685 39.4791 18.7821 42.5348 17.6877Z" fill="white"/>
<defs>
<filter id="filter0_d_1268_103" x="0.373169" y="0.438599" width="61.2536" height="61.2536" filterUnits="userSpaceOnUse" color-interpolation-filters="sRGB">
<feFlood flood-opacity="0" result="BackgroundImageFix"/>
<feColorMatrix in="SourceAlpha" type="matrix" values="0 0 0 0 0 0 0 0 0 0 0 0 0 0 0 0 0 0 127 0" result="hardAlpha"/>
<feOffset dy="4"/>
<feGaussianBlur stdDeviation="2"/>
<feComposite in2="hardAlpha" operator="out"/>
<feColorMatrix type="matrix" values="0 0 0 0 0 0 0 0 0 0 0 0 0 0 0 0 0 0 0.25 0"/>
<feBlend mode="normal" in2="BackgroundImageFix" result="effect1_dropShadow_1268_103"/>
<feBlend mode="normal" in="SourceGraphic" in2="effect1_dropShadow_1268_103" result="shape"/>
</filter>
</defs>
</svg>
