<svg width="21" height="27" viewBox="0 0 21 27" fill="none" xmlns="http://www.w3.org/2000/svg">
<path fill-rule="evenodd" clip-rule="evenodd" d="M0.915771 10.6672C0.915771 5.24613 5.29181 0.870087 10.7129 0.870087C16.1339 0.870087 20.51 5.24613 20.51 10.6672C20.51 15.5657 12.4764 24.971 10.9741 26.7018C10.8435 26.8651 10.6149 26.8651 10.4843 26.7018C8.9494 24.971 0.915771 15.5657 0.915771 10.6672ZM10.7124 15.1768C13.256 15.1768 15.3179 13.1149 15.3179 10.5714C15.3179 8.02783 13.256 5.96588 10.7124 5.96588C8.16888 5.96588 6.10693 8.02783 6.10693 10.5714C6.10693 13.1149 8.16888 15.1768 10.7124 15.1768Z" fill="#9C9E9F"/>
</svg>
