<svg width="25" height="23" viewBox="0 0 25 23" fill="none" xmlns="http://www.w3.org/2000/svg">
<path fill-rule="evenodd" clip-rule="evenodd" d="M18.2418 22.8479C17.4033 22.8733 16.6079 22.6866 15.8039 22.4659C10.4182 20.9551 6.38961 17.6617 3.13911 13.2989C1.91153 11.6607 0.779046 9.96306 0.398669 7.91745C-0.0508678 5.48139 0.666662 3.40182 2.51668 1.7212C3.10453 1.17796 4.91133 0.948785 5.62886 1.29679C5.89685 1.42411 6.06975 1.65329 6.17349 1.90793C6.85644 3.4867 7.5221 5.05699 8.18776 6.64425C8.31743 6.94133 8.25692 7.2469 8.1186 7.55247C7.78145 8.28244 7.22817 8.86811 6.67489 9.4453C6.25129 9.87818 6.234 10.2686 6.54522 10.7694C8.44711 13.8676 11.0752 16.1339 14.5072 17.4835C15.0173 17.6872 15.4063 17.6193 15.7521 17.1949C16.3226 16.4904 16.9364 15.8113 17.4724 15.0813C17.8442 14.5805 18.2678 14.5042 18.7865 14.7333C19.9276 15.2511 21.0601 15.7774 22.1926 16.3036C22.4519 16.4225 22.7026 16.5498 22.9533 16.6601C24.1117 17.2203 24.0944 17.2288 23.9907 18.4766C23.8005 20.9211 21.9332 22.1179 19.7288 22.7206C19.2619 22.8564 18.7519 22.8649 18.2418 22.8479Z" fill="#9C9E9F"/>
<path fill-rule="evenodd" clip-rule="evenodd" d="M20.3991 4.0062C21.3068 4.79559 21.9465 5.78869 22.4652 6.85818C22.8802 7.70698 23.1395 8.60671 23.3038 9.53191C23.3384 9.71864 23.4248 9.93084 23.2346 10.0921C22.7159 10.1261 22.2059 10.143 21.6872 10.2025C21.4884 10.2279 21.4279 10.1685 21.4019 9.97328C21.1685 8.22475 20.4423 6.69691 19.2147 5.4237C17.4339 3.56483 15.2294 2.65661 12.6187 2.733C12.5495 2.733 12.489 2.733 12.2815 2.74149C12.2642 2.1643 12.2556 1.5956 12.2383 1.01842C12.3507 0.823195 12.5581 0.857147 12.731 0.857147C13.803 0.831683 14.8663 0.975979 15.8951 1.28155C16.7336 1.5277 17.5376 1.85873 18.2897 2.31709C18.5145 2.46138 18.7393 2.61417 18.9381 2.79242C19.111 2.92822 19.4482 3.21682 19.6211 3.35263C19.8199 3.5139 20.2089 3.83644 20.3991 4.0062Z" fill="#9C9E9F"/>
<path fill-rule="evenodd" clip-rule="evenodd" d="M17.8813 5.43845C19.2991 6.64375 20.1808 8.17159 20.4748 10.022C20.5093 10.2427 20.4575 10.3191 20.2241 10.3276C19.7659 10.3445 19.3077 10.387 18.8495 10.4379C18.7112 10.4549 18.6593 10.4294 18.6334 10.2681C18.3913 8.6639 17.5787 7.3907 16.2301 6.4655C15.2359 5.77797 14.1121 5.43845 12.8845 5.48089C12.6857 5.48938 12.6252 5.44694 12.6165 5.24323C12.5906 4.78487 12.5474 4.32652 12.4955 3.86817C12.4782 3.70689 12.5214 3.66445 12.6857 3.66445C14.6394 3.61353 16.3598 4.20769 17.8813 5.43845Z" fill="#9C9E9F"/>
<path fill-rule="evenodd" clip-rule="evenodd" d="M15.9523 10.6702C15.7448 9.17631 14.5778 8.14077 13.0735 8.1238C12.9352 8.1238 12.8747 8.10682 12.8574 7.95404C12.8228 7.49568 12.7796 7.03733 12.7364 6.58747C12.7191 6.44317 12.745 6.40922 12.892 6.40073C15.157 6.24795 17.4652 8.15775 17.6986 10.3816C17.7159 10.5174 17.664 10.5344 17.5516 10.5429C17.0243 10.5768 16.4969 10.6193 15.9523 10.6702Z" fill="#9C9E9F"/>
</svg>
